PathFileType	4	(X/Y/Z)	C:/Users/beibeiliu/ov580/test_trc/User2\sequence.28_training_dense_right.trc
DataRate	CameraRate	NumFrames	NumMarkers	Units	OrigDataRate	OrigDataStartFrame	OrigNumFrames
120	120	16	19	mm	120	129	256
Frame#	Time	ThumbCMC			ThumbMCP			ThumbIP			ThumbTip			IndexMCP			IndexPIP			IndexTip			MiddleMCP			MiddlePIP			MiddleTip			RingMCP			RingPIP			RingTip			PinkyMCP			PinkyPIP			PinkyTip			BackHand1			BackHand2			BackHand3	
		X0	Y0	Z0	X1	Y1	Z1	X2	Y2	Z2	X3	Y3	Z3	X4	Y4	Z4	X5	Y5	Z5	X6	Y6	Z6	X7	Y7	Z7	X8	Y8	Z8	X9	Y9	Z9	X10	Y10	Z10	X11	Y11	Z11	X12	Y12	Z12	X13	Y13	Z13	X14	Y14	Z14	X15	Y15	Z15	X16	Y16	Z16	X17	Y17	Z17	X18	Y18	Z18	
128	1.06667	55.7974	-33.9312	89.3756	38.3	-60.2115	72.5507	35.1708	-88.0589	47.8914	49.0901	-108.914	27.8601	74.3857	-46.906	5.80923	77.3995	-61.6426	-15.7983	78.5149	-81.9553	-37.9331	80.0407	-77.0932	14.0402	61.874	-105.183	33.4433	65.2398	-79.2105	65.7285	88.9844	-96.3585	28.496	75.2934	-108.257	55.6194	79.2252	-78.4413	76.6263	107.097	-103.181	44.1358	87.5274	-105.695	68.0926	89.7984	-79.1573	83.5866	121.179	-44.9497	50.4719	129.926	-27.1449	84.3609	93.9775	-19.359	70.7242	
129	1.075	56.4118	-34.9045	90.4847	34.1507	-59.1202	74.5474	25.0837	-86.5564	52.5841	38.2175	-107.897	34.9703	68.5422	-50.1403	7.77856	64.0331	-63.7519	-14.3795	62.1974	-89.1451	-31.8692	67.4891	-80.726	15.0977	54.3455	-104.778	39.355	57.1187	-75.2486	68.2608	80.9288	-95.4893	31.2473	67.8084	-109.157	55.581	74.4952	-77.5189	78.6518	98.0695	-98.7381	43.0847	81.1469	-104.769	74.0639	88.4428	-77.2224	86.6986	115.044	-45.4339	51.5576	124.32	-28.8887	85.8498	89.4373	-17.934	69.6983	
130	1.08333	54.4525	-30.6709	95.9566	25.7417	-55.3956	78.3648	18.8041	-81.6492	55.8547	29.7258	-102.089	40.0733	56.3304	-43.4581	12.8876	47.9485	-57.9331	-11.4591	44.6598	-84.5234	-27.7235	58.2247	-79.9956	19.1304	41.6567	-98.6243	43.7898	50.5505	-74.4063	70.9383	69.8954	-94.7157	33.1992	55.3488	-104.004	59.7102	65.6539	-73.6146	80.0415	83.1746	-99.0318	43.7157	70.3166	-104.914	71.1996	78.0255	-74.5282	87.4505	106.473	-44.2696	50.4726	124.067	-33.9901	82.6201	86.4934	-19.2204	70.5022	
131	1.09167	51.0311	-27.5142	96.111	22.3324	-47.801	86.7825	6.80831	-74.35	60.4228	14.9301	-93.7487	42.8858	42.9175	-31.3609	17.459	34.5957	-44.2288	-8.76385	20.8639	-65.4221	-27.4591	47.8609	-67.7254	21.0674	29.0614	-91.3563	44.4304	45.6753	-69.9563	73.747	59.0926	-87.2277	32.128	43.3598	-99.5054	57.7806	58.7038	-72.4178	80.1231	72.9119	-96.0577	40.8646	57.9607	-98.5662	71.4595	69.8877	-75.0696	87.647	99.8383	-43.1064	52.0388	117.773	-32.8391	76.5983	82.6358	-16.4792	69.3185	
132	1.1	46.9487	-21.0469	104.055	16.3363	-40.2621	89.6204	-1.30027	-63.1782	62.1324	6.45003	-82.5462	44.3882	38.4288	-24.7344	20.3924	25.1996	-31.781	-5.45311	5.35064	-44.3076	-30.621	35.7835	-55.6769	20.006	18.3843	-84.2046	41.2052	34.7343	-71.3237	73.4084	47.5053	-80.2232	30.1041	32.4998	-93.428	52.8261	47.3477	-69.2398	79.3812	65.5177	-89.3551	37.5564	47.4537	-93.6368	68.5594	61.2778	-72.0232	82.2528	97.1301	-40.4612	49.6869	116.641	-34.9071	79.1512	81.9559	-10.7282	75.0113	
133	1.10833	45.5818	-17.2152	105.25	16.7014	-35.8676	86.136	-1.27007	-53.9088	65.5271	-1.06826	-72.7436	43.9642	30.1333	-11.8398	20.7831	15.7763	-16.9521	-2.82711	3.95471	-26.2817	-29.7195	32.9087	-51.2999	18.4079	10.4448	-72.4698	33.2319	27.48	-69.6382	71.5173	44.0969	-72.6485	26.6539	28.7374	-89.5414	49.0165	43.8276	-72.6704	77.9088	58.078	-86.8051	34.4805	42.2275	-92.0867	65.6801	53.7516	-70.8614	80.1546	91.4559	-37.7491	49.552	109.606	-29.3554	76.5571	77.9152	-8.04689	75.6337	
134	1.11667	49.4076	-16.9646	102.11	17.6627	-31.1363	88.0746	-8.51124	-46.7735	62.4686	-7.36678	-64.9107	39.0284	34.6065	-7.35663	20.2502	17.6722	-5.15197	-0.674917	4.57301	-8.79125	-29.1905	31.5356	-40.7373	14.3459	9.16664	-67.8722	27.3269	23.9033	-66.0348	68.3185	40.6669	-64.9931	21.6785	23.919	-82.6412	41.4638	38.575	-64.8593	74.8403	57.8033	-78.617	30.0415	36.8961	-85.7105	58.6592	49.9655	-68.8365	78.6579	93.2937	-33.5599	50.3633	112.274	-32.2684	80.5115	83.6516	-8.67519	74.9387	
135	1.125	48.5166	-14.3419	98.2969	15.1758	-27.3418	85.0355	-7.68994	-42.915	58.9124	-6.07611	-60.6036	37.3647	38.4785	-1.72441	20.2327	27.4541	-3.3609	-5.9457	16.1842	-4.10504	-31.9808	36.3959	-40.6346	9.06133	11.7254	-64.3948	19.0047	17.0221	-68.6658	57.7653	41.2891	-64.713	17.6125	24.1846	-79.8446	39.374	36.6518	-69.6094	68.8246	58.0694	-77.7167	28.2686	37.2786	-87.113	55.6007	50.3248	-70.4281	78.5815	93.9561	-36.7136	46.2659	115.086	-32.0564	78.7048	82.6371	-8.95081	70.9487	
136	1.13333	51.6131	-13.9964	97.1401	21.691	-27.7934	78.6646	-0.422955	-42.3642	55.6178	-3.36883	-59.274	33.367	49.7436	-6.55137	14.8141	35.7387	-0.897193	-9.61437	26.5227	-5.45815	-39.9432	43.2094	-41.0619	6.13688	15.0582	-60.645	11.4865	16.7264	-69.1451	51.4918	50.1021	-66.1981	15.2472	28.0597	-80.5809	33.0135	37.337	-68.6923	68.1862	60.4646	-79.4062	25.6741	38.9045	-86.9891	52.6042	49.1693	-68.0268	75.725	99.2239	-38.8535	44.4982	118.098	-38.8722	78.4642	88.9814	-9.78826	68.2733	
137	1.14167	53.5867	-11.746	92.3463	22.7803	-25.7094	73.4798	-1.44206	-39.5149	49.5524	-2.40776	-60.0267	33.5501	55.6975	-10.1001	6.24873	44.9185	-9.07587	-17.2127	37.2901	-11.656	-43.925	47.3758	-45.5181	4.45639	14.2142	-64.1465	13.585	14.1096	-65.3957	51.143	48.9106	-71.5531	15.0004	24.9558	-79.5573	37.183	36.0944	-64.0335	68.8157	57.3919	-83.4931	28.6565	36.7458	-86.3734	53.0611	51.2581	-70.3018	79.3504	104.655	-47.0606	45.6787	118.387	-37.3387	76.593	90.9517	-10.5776	65.6633	
138	1.15	57.1886	-7.8564	87.2771	24.216	-20.1049	73.2876	-1.66453	-35.8755	51.6772	-8.19685	-58.8414	33.558	60.3522	-18.5279	2.70087	49.8956	-18.7117	-23.6999	43.1339	-26.3881	-47.4523	46.1846	-51.6166	4.41243	13.3819	-65.8003	18.3634	13.3901	-66.3741	54.0311	48.9723	-73.6369	20.8384	22.8879	-81.6702	42.8759	32.1852	-61.1928	72.0218	54.3428	-87.1024	34.2906	32.6217	-83.6428	58.453	46.0531	-65.3184	83.5301	102.61	-50.055	44.7865	120.34	-45.2661	75.7948	96.3681	-15.5543	65.0472	
139	1.15833	63.6791	-6.29334	84.9743	29.112	-16.4593	71.3888	-1.15107	-29.4581	54.8682	-7.77641	-52.3222	42.7083	59.943	-19.435	1.50122	48.6734	-24.9563	-24.8706	40.4216	-32.6887	-46.1616	43.1244	-53.0522	7.8032	8.92314	-63.7427	23.8584	9.98087	-59.3943	60.6895	42.5694	-72.1152	25.9831	17.7253	-76.9757	45.9527	29.4511	-56.9988	78.0045	47.9927	-89.4918	42.2887	26.9535	-80.1973	62.7946	41.4351	-59.3218	86.9048	99.2874	-54.9246	47.3247	120.123	-48.0645	77.0456	99.7837	-19.2135	61.3844	
140	1.16667	67.0007	-1.63956	81.1111	28.4784	-4.14145	74.0836	0.551558	-18.1267	61.1944	-11.4145	-41.6255	46.8339	59.8539	-19.4651	4.53374	46.7601	-27.7738	-23.9253	35.2512	-30.8058	-47.5957	41.3262	-49.3982	11.6242	3.7538	-54.2903	26.2117	5.52974	-49.6026	65.2094	35.1243	-72.8696	30.1762	10.2383	-66.2165	50.1587	24.4584	-49.9995	82.6321	44.4043	-84.2942	46.0889	20.4545	-72.5564	65.8211	38.4029	-49.1465	88.7134	96.6772	-61.0982	53.1005	115.391	-51.3936	77.1746	100.151	-17.4238	59.585	
141	1.175	71.2279	7.35235	83.7145	32.4938	1.87742	72.8953	0.16191	-5.21549	58.9773	-11.5787	-28.8451	50.4377	58.7188	-13.4754	0.721467	46.0781	-20.7645	-21.3349	31.4284	-25.3719	-44.8278	38.3971	-45.5508	13.3265	1.8085	-41.8579	24.9892	2.14639	-35.4445	63.5535	28.3453	-59.7077	30.3587	5.85232	-55.7963	53.1409	16.7237	-38.0877	79.3588	36.9356	-79.245	48.6733	15.539	-60.3037	70.475	33.4255	-44.7376	89.6384	92.026	-55.5055	49.8419	115.625	-53.8956	78.9795	101.72	-21.7062	59.162	
142	1.18333	73.6363	11.0711	78.1975	36.5835	15.0347	72.648	3.97719	6.27157	57.6667	-10.704	-14.4784	50.6814	60.4344	-10.9388	1.34123	46.0911	-9.95859	-21.6499	31.6991	-12.6665	-45.3562	35.345	-37.2094	10.4958	2.23722	-34.9607	22.7372	4.96661	-22.0616	64.409	23.8111	-53.262	30.1613	3.3778	-43.4985	47.0348	18.3781	-27.0532	81.355	29.9716	-68.9984	47.8486	11.6708	-49.8249	66.5551	31.7236	-34.6067	90.9632	90.3399	-53.8165	53.5751	111.094	-55.5546	75.3296	103.957	-17.3153	56.3651	
143	1.19167	79.4973	11.1285	75.1454	44.0439	21.3555	70.3389	8.29911	15.8591	54.8135	-8.3449	-6.37162	44.7729	63.8732	-7.57105	1.50771	47.4033	-6.29684	-26.4781	32.4494	-11.392	-47.892	38.2993	-33.0493	9.50272	2.63601	-26.3938	20.2734	6.07163	-11.2591	60.0987	28.0608	-47.6998	28.9273	1.93713	-34.9156	51.7716	17.3791	-18.9199	77.5286	29.0146	-63.8846	47.7571	10.268	-43.0869	67.1764	33.2733	-23.9643	84.2324	87.6404	-53.5335	47.9921	110.657	-52.1772	80.6406	103.056	-19.5829	56.6697	
